<?xml version="1.0" encoding="UTF-8" standalone="no"?>
<!-- Generator: Adobe Illustrator 22.1.0, SVG Export Plug-In . SVG Version: 6.00 Build 0)  -->

<svg
   xmlns:dc="http://purl.org/dc/elements/1.1/"
   xmlns:cc="http://creativecommons.org/ns#"
   xmlns:rdf="http://www.w3.org/1999/02/22-rdf-syntax-ns#"
   xmlns:svg="http://www.w3.org/2000/svg"
   xmlns="http://www.w3.org/2000/svg"
   xmlns:sodipodi="http://sodipodi.sourceforge.net/DTD/sodipodi-0.dtd"
   xmlns:inkscape="http://www.inkscape.org/namespaces/inkscape"
   version="1.2"
   id="Layer_1"
   x="0px"
   y="0px"
   viewBox="0 0 2350 2314.8"
   xml:space="preserve"
   sodipodi:docname="github.svg"
   inkscape:version="0.92.5 (2060ec1f9f, 2020-04-08)"><metadata
   id="metadata9"><rdf:RDF><cc:Work
       rdf:about=""><dc:format>image/svg+xml</dc:format><dc:type
         rdf:resource="http://purl.org/dc/dcmitype/StillImage" /></cc:Work></rdf:RDF></metadata><defs
   id="defs7"><marker
     inkscape:stockid="Arrow1Lstart"
     orient="auto"
     refY="0.0"
     refX="0.0"
     id="Arrow1Lstart"
     style="overflow:visible"
     inkscape:isstock="true"><path
       id="path4555"
       d="M 0.0,0.0 L 5.0,-5.0 L -12.5,0.0 L 5.0,5.0 L 0.0,0.0 z "
       style="fill-rule:evenodd;stroke:none;stroke-width:1pt;stroke-opacity:1;fill:#ffffff;fill-opacity:0.36918604"
       transform="scale(0.8) translate(12.5,0)" /></marker></defs><sodipodi:namedview
   pagecolor="#ffffff"
   bordercolor="#666666"
   borderopacity="1"
   objecttolerance="10"
   gridtolerance="10"
   guidetolerance="10"
   inkscape:pageopacity="0"
   inkscape:pageshadow="2"
   inkscape:window-width="1848"
   inkscape:window-height="1001"
   id="namedview5"
   showgrid="false"
   inkscape:zoom="0.1767767"
   inkscape:cx="1275.0772"
   inkscape:cy="334.06111"
   inkscape:window-x="72"
   inkscape:window-y="41"
   inkscape:window-maximized="1"
   inkscape:current-layer="layer1" />

<g
   inkscape:groupmode="layer"
   id="layer1"
   inkscape:label="Layer 1"><path
     style="opacity:0.99999999;vector-effect:none;fill:#ffffff;fill-opacity:1;fill-rule:evenodd;stroke:none;stroke-width:108.68517303;stroke-linecap:round;stroke-linejoin:round;stroke-miterlimit:4;stroke-dasharray:none;stroke-dashoffset:0;stroke-opacity:1;paint-order:markers stroke fill"
     id="path4550"
     sodipodi:type="arc"
     sodipodi:cx="1174.5648"
     sodipodi:cy="1192.1759"
     sodipodi:rx="1160.7212"
     sodipodi:ry="1157.8463"
     sodipodi:start="0"
     sodipodi:end="6.0698893"
     d="M 2335.286,1192.1759 A 1160.7212,1157.8463 0 0 1 1236.4298,2348.3765 1160.7212,1157.8463 0 0 1 20.438277,1315.424 1160.7212,1157.8463 0 0 1 989.67288,49.113269 1160.7212,1157.8463 0 0 1 2308.9823,947.08026"
     sodipodi:open="true" /></g><g
   inkscape:groupmode="layer"
   id="layer2"
   inkscape:label="Layer 2"><path
     d="M1175,0C525.8,0,0,525.8,0,1175c0,552.2,378.9,1010.5,890.1,1139.7c-5.9-14.7-8.8-35.3-8.8-55.8v-199.8H734.4  c-79.3,0-152.8-35.2-185.1-99.9c-38.2-70.5-44.1-179.2-141-246.8c-29.4-23.5-5.9-47,26.4-44.1c61.7,17.6,111.6,58.8,158.6,120.4  c47,61.7,67.6,76.4,155.7,76.4c41.1,0,105.7-2.9,164.5-11.8c32.3-82.3,88.1-155.7,155.7-190.9c-393.6-47-581.6-240.9-581.6-505.3  c0-114.6,49.9-223.3,132.2-317.3c-26.4-91.1-61.7-279.1,11.8-352.5c176.3,0,282,114.6,308.4,143.9c88.1-29.4,185.1-47,284.9-47  c102.8,0,196.8,17.6,284.9,47c26.4-29.4,132.2-143.9,308.4-143.9c70.5,70.5,38.2,261.4,8.8,352.5c82.3,91.1,129.3,202.7,129.3,317.3  c0,264.4-185.1,458.3-575.7,499.4c108.7,55.8,185.1,214.4,185.1,331.9V2256c0,8.8-2.9,17.6-2.9,26.4  C2021,2123.8,2350,1689.1,2350,1175C2350,525.8,1824.2,0,1175,0L1175,0z"
     id="path2"
     style="" /></g></svg>