<?xml version="1.0" encoding="UTF-8" standalone="no"?>
<!-- Created with Inkscape (http://www.inkscape.org/) -->

<svg
   xmlns:dc="http://purl.org/dc/elements/1.1/"
   xmlns:cc="http://creativecommons.org/ns#"
   xmlns:rdf="http://www.w3.org/1999/02/22-rdf-syntax-ns#"
   xmlns:svg="http://www.w3.org/2000/svg"
   xmlns="http://www.w3.org/2000/svg"
   xmlns:sodipodi="http://sodipodi.sourceforge.net/DTD/sodipodi-0.dtd"
   xmlns:inkscape="http://www.inkscape.org/namespaces/inkscape"
   width="512"
   height="512"
   viewBox="0 0 135.46666 135.46667"
   version="1.1"
   id="svg8"
   inkscape:version="0.92.3 (2405546, 2018-03-11)"
   sodipodi:docname="cutiemark.svg"
   style="enable-background:new"
   inkscape:export-filename="/home/drewdru/Pictures/DrewDru/cutiemark.png"
   inkscape:export-xdpi="105.59142"
   inkscape:export-ydpi="105.59142">
  <defs
     id="defs2">
    <marker
       inkscape:stockid="DotL"
       orient="auto"
       refY="0"
       refX="0"
       id="DotL"
       style="overflow:visible"
       inkscape:isstock="true">
      <path
         id="path5827"
         d="m -2.5,-1 c 0,2.76 -2.24,5 -5,5 -2.76,0 -5,-2.24 -5,-5 0,-2.76 2.24,-5 5,-5 2.76,0 5,2.24 5,5 z"
         style="fill:#000000;fill-opacity:1;fill-rule:evenodd;stroke:#000000;stroke-width:1.00000003pt;stroke-opacity:1"
         transform="matrix(0.8,0,0,0.8,5.92,0.8)"
         inkscape:connector-curvature="0" />
    </marker>
  </defs>
  <sodipodi:namedview
     id="base"
     pagecolor="#ffffff"
     bordercolor="#666666"
     borderopacity="1.0"
     inkscape:pageopacity="0.0"
     inkscape:pageshadow="2"
     inkscape:zoom="1"
     inkscape:cx="94.169579"
     inkscape:cy="308.67187"
     inkscape:document-units="mm"
     inkscape:current-layer="layer3"
     showgrid="false"
     inkscape:snap-page="true"
     inkscape:window-width="1920"
     inkscape:window-height="1002"
     inkscape:window-x="0"
     inkscape:window-y="41"
     inkscape:window-maximized="1"
     inkscape:snap-object-midpoints="true"
     inkscape:snap-bbox="true"
     units="px" />
  <metadata
     id="metadata5">
    <rdf:RDF>
      <cc:Work
         rdf:about="">
        <dc:format>image/svg+xml</dc:format>
        <dc:type
           rdf:resource="http://purl.org/dc/dcmitype/StillImage" />
        <dc:title></dc:title>
      </cc:Work>
    </rdf:RDF>
  </metadata>
  <g
     inkscape:label="circle"
     inkscape:groupmode="layer"
     id="layer1"
     style="display:inline"
     transform="translate(0,-161.53332)">
    <circle
       style="opacity:1;vector-effect:none;fill:#5fec6f;fill-opacity:1;stroke:#6ecc4f;stroke-width:2;stroke-linecap:butt;stroke-linejoin:miter;stroke-miterlimit:4;stroke-dasharray:none;stroke-dashoffset:0;stroke-opacity:0"
       id="path5186"
       cx="59.624905"
       cy="223.94081"
       r="55.279018" />
  </g>
  <g
     inkscape:groupmode="layer"
     id="layer3"
     inkscape:label="circle-data"
     style="display:inline"
     transform="translate(0,-161.53332)">
    <circle
       style="display:inline;opacity:1;vector-effect:none;fill:#ffdc00;fill-opacity:1;stroke:#ffdc00;stroke-width:3;stroke-linecap:round;stroke-linejoin:round;stroke-miterlimit:4;stroke-dasharray:none;stroke-dashoffset:0;stroke-opacity:1;paint-order:normal"
       id="path5453"
       cx="22.895056"
       cy="191.82228"
       r="2.5796874" />
    <circle
       style="display:inline;opacity:1;vector-effect:none;fill:#ffdc00;fill-opacity:1;stroke:#ffdc00;stroke-width:3;stroke-linecap:round;stroke-linejoin:round;stroke-miterlimit:4;stroke-dasharray:none;stroke-dashoffset:0;stroke-opacity:1;paint-order:normal"
       id="path5459-8"
       cx="44.126888"
       cy="256.92447"
       r="1.3096207" />
    <circle
       style="display:inline;opacity:1;vector-effect:none;fill:#ffdc00;fill-opacity:1;stroke:#ffdc00;stroke-width:3;stroke-linecap:round;stroke-linejoin:round;stroke-miterlimit:4;stroke-dasharray:none;stroke-dashoffset:0;stroke-opacity:1;paint-order:normal"
       id="path5459-9"
       cx="49.36536"
       cy="263.56613"
       r="1.3096207" />
    <circle
       style="display:inline;opacity:1;vector-effect:none;fill:#ffdc00;fill-opacity:1;stroke:#ffdc00;stroke-width:3;stroke-linecap:round;stroke-linejoin:round;stroke-miterlimit:4;stroke-dasharray:none;stroke-dashoffset:0;stroke-opacity:1;paint-order:normal"
       id="path5459-2"
       cx="54.690754"
       cy="269.94983"
       r="1.3096207" />
    <path
       style="display:inline;fill:none;stroke:#ffdc00;stroke-width:2.97079158;stroke-linecap:round;stroke-linejoin:round;stroke-miterlimit:4;stroke-dasharray:none;stroke-opacity:1;paint-order:normal"
       d="m 47.880556,170.60625 44.277378,50.16169"
       id="path5263"
       inkscape:connector-curvature="0" />
    <path
       style="display:inline;fill:none;stroke:#ffdc00;stroke-width:3;stroke-linecap:round;stroke-linejoin:round;stroke-miterlimit:4;stroke-dasharray:none;stroke-opacity:1;paint-order:normal"
       d="m 65.895075,252.80073 17.88077,20.2887"
       id="path5263-3"
       inkscape:connector-curvature="0" />
    <path
       style="display:inline;fill:none;stroke:#ffdc00;stroke-width:3;stroke-linecap:round;stroke-linejoin:round;stroke-miterlimit:4;stroke-dasharray:none;stroke-opacity:1;paint-order:normal"
       d="M 5.4686924,218.02065 43.298045,184.681"
       id="path5263-3-5"
       inkscape:connector-curvature="0" />
    <path
       style="display:inline;fill:none;stroke:#ffdc00;stroke-width:3;stroke-linecap:round;stroke-linejoin:round;stroke-miterlimit:4;stroke-dasharray:none;stroke-opacity:1;paint-order:normal"
       d="M 19.131452,260.48976 79.957345,206.88287"
       id="path5263-3-5-6"
       inkscape:connector-curvature="0" />
    <path
       style="display:inline;fill:none;stroke:#ffdc00;stroke-width:3;stroke-linecap:round;stroke-linejoin:round;stroke-miterlimit:4;stroke-dasharray:none;stroke-opacity:1;paint-order:normal"
       d="m 40.270705,242.35077 24.03931,27.27658"
       id="path5263-3-9"
       inkscape:connector-curvature="0" />
    <path
       style="display:inline;fill:none;stroke:#ffdc00;stroke-width:3;stroke-linecap:round;stroke-linejoin:round;stroke-miterlimit:4;stroke-dasharray:none;stroke-opacity:1;paint-order:normal"
       d="m 29.999269,251.02066 24.009936,27.24326"
       id="path5263-3-9-1"
       inkscape:connector-curvature="0" />
    <path
       style="display:inline;fill:none;stroke:#ffdc00;stroke-width:3;stroke-linecap:round;stroke-linejoin:round;stroke-miterlimit:4;stroke-dasharray:none;stroke-opacity:1;paint-order:normal"
       d="m 47.876805,251.03903 18.01827,1.7617"
       id="path5263-3-9-2"
       inkscape:connector-curvature="0" />
    <path
       style="display:inline;fill:none;stroke:#ffdc00;stroke-width:3;stroke-linecap:round;stroke-linejoin:round;stroke-miterlimit:4;stroke-dasharray:none;stroke-opacity:1;paint-order:normal"
       d="M 19.127481,214.89584 39.416175,197.01507"
       id="path5263-3-7"
       inkscape:connector-curvature="0" />
    <path
       style="display:inline;fill:none;stroke:#ffdc00;stroke-width:3;stroke-linecap:round;stroke-linejoin:round;stroke-miterlimit:4;stroke-dasharray:none;stroke-opacity:1;paint-order:normal"
       d="M 8.6775207,240.52021 35.954095,216.4809"
       id="path5263-3-9-0"
       inkscape:connector-curvature="0" />
    <path
       style="display:inline;fill:none;stroke:#ffdc00;stroke-width:3;stroke-linecap:round;stroke-linejoin:round;stroke-miterlimit:4;stroke-dasharray:none;stroke-opacity:1;paint-order:normal"
       d="M 12.889547,251.08835 62.565135,207.30843"
       id="path5263-3-9-1-9"
       inkscape:connector-curvature="0" />
    <path
       style="display:inline;fill:none;stroke:#ffdc00;stroke-width:3;stroke-linecap:round;stroke-linejoin:round;stroke-miterlimit:4;stroke-dasharray:none;stroke-opacity:1;paint-order:normal"
       d="m 17.365781,232.91411 1.7617,-18.01827"
       id="path5263-3-9-2-3"
       inkscape:connector-curvature="0" />
    <path
       style="display:inline;fill:none;stroke:#ffdc00;stroke-width:3;stroke-linecap:round;stroke-linejoin:round;stroke-miterlimit:4;stroke-dasharray:none;stroke-opacity:1;paint-order:normal"
       d="m 26.33493,182.22291 8.530525,9.6793"
       id="path5263-3-9-6"
       inkscape:connector-curvature="0" />
    <path
       style="display:inline;fill:none;stroke:#ffdc00;stroke-width:3;stroke-linecap:round;stroke-linejoin:round;stroke-miterlimit:4;stroke-dasharray:none;stroke-opacity:1;paint-order:normal"
       d="m 14.052784,194.89465 7.642726,8.67194"
       id="path5263-3-9-6-0"
       inkscape:connector-curvature="0" />
    <circle
       style="display:inline;opacity:1;vector-effect:none;fill:#ffdc00;fill-opacity:1;stroke:#ffdc00;stroke-width:3;stroke-linecap:round;stroke-linejoin:round;stroke-miterlimit:4;stroke-dasharray:none;stroke-dashoffset:0;stroke-opacity:1;paint-order:normal"
       id="path5447"
       cx="64.310013"
       cy="269.62732"
       r="2.4298322" />
    <circle
       style="display:inline;opacity:1;vector-effect:none;fill:#ffdc00;fill-opacity:1;stroke:#ffdc00;stroke-width:3;stroke-linecap:round;stroke-linejoin:round;stroke-miterlimit:4;stroke-dasharray:none;stroke-dashoffset:0;stroke-opacity:1;paint-order:normal"
       id="path5451"
       cx="9.7320385"
       cy="226.41655"
       r="2.3812499" />
    <circle
       style="display:inline;opacity:1;vector-effect:none;fill:#ffdc00;fill-opacity:1;stroke:#ffdc00;stroke-width:3;stroke-linecap:round;stroke-linejoin:round;stroke-miterlimit:4;stroke-dasharray:none;stroke-dashoffset:0;stroke-opacity:1;paint-order:normal"
       id="path5459-8-3"
       cx="28.55508"
       cy="260.51459"
       r="1.3096207" />
    <circle
       style="display:inline;opacity:1;vector-effect:none;fill:#ffdc00;fill-opacity:1;stroke:#ffdc00;stroke-width:3;stroke-linecap:round;stroke-linejoin:round;stroke-miterlimit:4;stroke-dasharray:none;stroke-dashoffset:0;stroke-opacity:1;paint-order:normal"
       id="path5459-9-2"
       cx="33.700001"
       cy="266.31436"
       r="1.3096207" />
    <circle
       style="display:inline;opacity:1;vector-effect:none;fill:#ffdc00;fill-opacity:1;stroke:#ffdc00;stroke-width:3;stroke-linecap:round;stroke-linejoin:round;stroke-miterlimit:4;stroke-dasharray:none;stroke-dashoffset:0;stroke-opacity:1;paint-order:normal"
       id="path5459-2-0"
       cx="39.306034"
       cy="272.32385"
       r="1.3096207" />
    <circle
       style="display:inline;opacity:1;vector-effect:none;fill:#ffdc00;fill-opacity:1;stroke:#ffdc00;stroke-width:3;stroke-linecap:round;stroke-linejoin:round;stroke-miterlimit:4;stroke-dasharray:none;stroke-dashoffset:0;stroke-opacity:1;paint-order:normal;enable-background:new"
       id="path5447-5"
       cx="43.298046"
       cy="184.681"
       r="2.4298322" />
  </g>
  <g
     inkscape:groupmode="layer"
     id="layer2"
     inkscape:label="circle-border"
     style="display:inline"
     transform="translate(0,-161.53332)">
    <circle
       style="opacity:1;vector-effect:none;fill:#5fff70;fill-opacity:0;stroke:#2ecc4f;stroke-width:2;stroke-linecap:butt;stroke-linejoin:miter;stroke-miterlimit:4;stroke-dasharray:none;stroke-dashoffset:0;stroke-opacity:0.94117647"
       id="path5186-5"
       cx="59.624432"
       cy="223.94087"
       r="55.279018" />
  </g>
  <g
     inkscape:groupmode="layer"
     id="layer6"
     inkscape:label="Dragon-fill"
     style="display:inline"
     transform="translate(0,-161.53332)">
    <path
       style="opacity:1;vector-effect:none;fill:#a67fac;fill-opacity:1;stroke:#a67fac;stroke-width:2;stroke-linecap:round;stroke-linejoin:round;stroke-miterlimit:4;stroke-dasharray:none;stroke-dashoffset:0;stroke-opacity:1;paint-order:markers stroke fill"
       d="m 126.47218,286.75949 c -1.30756,-1.32868 -5.80157,-5.52255 -7.79957,-7.27867 -12.69186,-11.15538 -24.911425,-18.41186 -38.80424,-23.04353 l -2.756534,-0.91899 0.970597,-0.6408 c 1.40784,-0.92947 3.712091,-3.28848 4.776721,-4.89022 2.564517,-3.85834 4.160044,-8.85903 4.914583,-15.40325 0.312052,-2.70646 0.304493,-3.53517 -0.03535,-3.875 -0.350263,-0.35027 -1.097029,-0.37009 -1.463061,-0.0388 -0.285353,0.25824 -0.315992,0.42626 -0.544819,2.98778 -0.198187,2.2185 -0.689838,5.07637 -1.237301,7.19216 -1.222306,4.72389 -3.135749,8.23899 -5.889066,10.81854 -1.222428,1.14528 -3.337161,2.58216 -3.579696,2.43227 -0.07623,-0.0471 -0.138602,-0.2005 -0.138602,-0.34086 0,-0.55555 -0.860065,-2.92943 -1.660565,-4.58336 -1.805051,-3.72947 -4.808405,-7.57911 -9.571326,-12.26834 -1.218911,-1.20005 -1.687356,-1.74247 -1.569685,-1.81756 0.405495,-0.25878 2.118103,-0.90974 3.21043,-1.22028 0.654844,-0.18617 2.440781,-0.58225 3.96875,-0.88018 6.024946,-1.17476 8.06314,-1.93593 10.421144,-3.8918 1.105439,-0.91691 1.528669,-1.48936 2.350846,-3.17965 2.362174,-4.85632 2.264,-9.32687 -0.327266,-14.90274 -0.42165,-0.90731 -0.626557,-1.09132 -1.215236,-1.09132 -0.956249,0 -1.279925,0.92466 -0.712806,2.0363 0.159795,0.31322 0.494125,1.09666 0.742958,1.74097 1.218345,3.1547 1.402948,6.05952 0.565809,8.90333 -0.364982,1.23985 -1.46471,3.51182 -1.988796,4.10873 -1.058093,1.20509 -3.055316,2.3851 -5.140299,3.03699 -0.618463,0.19337 -2.731823,0.67531 -4.696354,1.07096 -4.06069,0.81783 -5.423387,1.18226 -7.054538,1.88664 -2.124038,0.91723 -3.259391,1.82319 -8.225149,6.56332 -5.114825,4.88242 -6.836871,6.35797 -9.392709,8.04822 -2.369211,1.56683 -4.690924,2.62763 -6.81302,3.11289 -2.179103,0.4983 -2.664204,0.49482 -5.015222,-0.036 -2.522104,-0.56946 -4.090501,-1.0027 -5.524476,-1.52604 -1.190586,-0.4345 -2.226448,-0.99676 -2.226448,-1.20849 0,-0.41758 0.642649,-1.07384 2.182812,-2.22904 2.564477,-1.92349 5.175962,-4.22411 8.863542,-7.80845 3.623871,-3.52241 5.12408,-4.881 6.384388,-5.7817 l 0.828135,-0.59184 0.486132,0.42683 c 1.123413,0.98636 2.481945,1.19487 3.730715,0.57258 1.894417,-0.94403 2.375069,-3.44775 1.287793,-6.70814 -0.902988,-2.70777 -1.740053,-4.04862 -2.691474,-4.31132 -1.784371,-0.49269 -2.83062,1.40828 -3.227247,5.86371 -0.07842,0.88096 -0.167314,1.72081 -0.19753,1.86633 -0.03182,0.15323 -0.436668,0.501 -0.961972,0.82633 -1.26679,0.78456 -3.238066,2.52614 -7.160294,6.32596 -5.161066,5 -9.48745,8.59044 -10.766147,8.93476 -1.965926,0.52936 -6.373209,-1.67234 -7.86947,-3.93128 -0.632648,-0.95513 -0.572662,-1.28271 0.422595,-2.30777 1.341847,-1.38202 1.939959,-3.02071 1.976892,-5.41623 0.02074,-1.34574 -0.290375,-2.19176 -1.094928,-2.97739 l -0.513662,-0.50158 1.640618,-1.08873 c 3.397697,-2.25474 6.192232,-4.69846 8.392065,-7.33855 1.573583,-1.8885 1.630352,-1.98121 2.773471,-4.52908 3.12199,-6.95855 5.412972,-10.58112 8.452617,-13.36555 1.910231,-1.74984 3.923435,-2.80542 6.172594,-3.23646 0.900348,-0.17255 1.295419,-0.17963 2.584188,-0.0463 2.209797,0.22859 2.740253,0.21831 3.046735,-0.0591 0.343977,-0.3113 0.359106,-1.25523 0.02498,-1.55762 -0.262787,-0.23782 -2.238491,-0.62155 -3.200159,-0.62155 -1.301216,0 -3.568279,-0.78783 -4.163991,-1.44704 -0.770258,-0.85235 0.352001,-2.68402 2.888035,-4.71365 8.74227,-6.99658 29.981329,-15.13256 47.111188,-18.04674 3.798103,-0.64614 6.198453,-0.92898 10.649475,-1.25484 l 0.85989,-0.063 -0.85989,0.31858 c -0.47294,0.17521 -2.43747,0.8802 -4.365622,1.56664 -8.510903,3.02993 -12.478068,5.00149 -14.816667,7.36341 -0.545703,0.55114 -1.106374,1.25606 -1.245933,1.56649 -0.235842,0.52458 -0.239035,0.59525 -0.04528,1.00157 0.121613,0.25502 0.379915,0.50818 0.619966,0.60761 0.469762,0.19458 0.669438,0.16191 3.44937,-0.56432 6.184631,-1.61567 11.787794,-1.00105 17.793226,1.95175 2.33483,1.148 3.36479,1.78537 5.68854,3.52021 6.71084,5.0101 13.09108,13.00598 19.21722,24.08354 1.08458,1.96119 2.41247,4.54331 2.41247,4.69111 0,0.10655 -0.89679,-0.0108 -3.69338,-0.48333 -3.20677,-0.54183 -5.21698,-1.00336 -10.32954,-2.37161 -6.5884,-1.76322 -7.26863,-1.8921 -10.05962,-1.90601 -2.00613,-0.01 -2.36883,0.02 -2.67681,0.22163 -0.64708,0.42355 -0.64408,1.40438 0.005,1.72865 0.19904,0.0994 0.95582,0.2514 1.68175,0.33778 5.75801,0.68518 10.17212,2.78099 12.7903,6.07282 2.45555,3.08737 3.7395,6.98638 4.36563,13.25725 0.20035,2.00662 0.22303,9.71191 0.0605,20.57135 -0.12559,8.39406 -0.0328,11.77939 0.4552,16.6026 0.475,4.69494 1.38097,9.47445 2.49498,13.16237 0.28561,0.94553 0.50575,1.73269 0.48919,1.74925 -0.0166,0.0166 -0.41372,-0.35971 -0.88259,-0.83615 z M 42.449636,218.34705 c 0.526611,-0.24468 1.455444,-1.04847 3.704167,-3.20551 5.022328,-4.81755 6.268735,-5.81765 10.475793,-8.40558 1.696559,-1.04363 2.777135,-1.79239 2.885998,-1.9998 0.330711,-0.63007 -0.132545,-1.50526 -0.796769,-1.50526 -0.128233,0 -0.72518,0.14236 -1.326554,0.31635 -0.601372,0.17399 -2.34356,0.53577 -3.871529,0.80395 -3.879924,0.68097 -6.482951,1.21222 -7.776657,1.58712 -1.594303,0.46201 -3.462787,1.30629 -4.27114,1.92993 -1.875102,1.44663 -3.275761,4.35468 -3.260283,6.76899 0.02178,3.39614 1.71718,4.8806 4.236974,3.70981 z"
       id="path6311"
       inkscape:connector-curvature="0" />
  </g>
  <g
     inkscape:groupmode="layer"
     id="layer7"
     inkscape:label="Dragon-shadow"
     style="display:inline"
     transform="translate(0,-161.53332)">
    <path
       style="fill:#775481;fill-opacity:1;stroke:#775481;stroke-width:2;stroke-linecap:round;stroke-linejoin:round;stroke-miterlimit:4;stroke-dasharray:none;stroke-opacity:1"
       d="m 80.507635,210.93843 c 2.2441,2.49727 9.0245,4.68197 6.48274,20.50521 l 43.290845,60.74707 C 110.94371,267.24963 92.446375,259.39216 74.158085,255.7853 c -0.81382,-10.65732 -8.78737,-14.70876 -13.3803,-20.14213 6.5491,-2.71033 15.52893,-2.39407 19.37308,-8.47241 5.61074,-2.97503 2.40903,-9.80551 0.35677,-16.13311 v 0 0"
       id="path6314"
       inkscape:connector-curvature="0"
       sodipodi:nodetypes="ccccccccc" />
    <path
       style="fill:#775481;fill-opacity:1;stroke:#775481;stroke-width:2;stroke-linecap:round;stroke-linejoin:round;stroke-miterlimit:4;stroke-dasharray:none;stroke-opacity:1"
       d="m 105.57735,214.97332 c 6.49197,3.72319 15.33144,0.99074 18.24931,14.5427 l 0.91275,14.73689 c -2.51677,-7.97818 -9.84838,-22.16972 -19.16206,-29.27959 v 0 0"
       id="path6316"
       inkscape:connector-curvature="0"
       sodipodi:nodetypes="cccccc" />
    <path
       style="display:inline;fill:#775481;fill-opacity:1;stroke:#775481;stroke-width:2;stroke-linecap:round;stroke-linejoin:round;stroke-miterlimit:4;stroke-dasharray:none;stroke-opacity:1"
       d="m 83.519945,183.91617 c 21.169925,-4.86977 34.911615,10.46869 48.169865,35.66329 -7.80614,-16.47134 -26.64428,-34.64573 -48.169865,-35.66329 0,0 0.9123,-0.60913 0,0 z"
       id="path6318"
       inkscape:connector-curvature="0"
       sodipodi:nodetypes="cccc" />
  </g>
  <g
     inkscape:groupmode="layer"
     id="layer5"
     inkscape:label="Dragon-line"
     style="display:inline"
     transform="translate(0,-161.53332)">
    <g
       id="g6497"
       transform="translate(-67.658585,155.89989)">
      <path
         sodipodi:nodetypes="cc"
         inkscape:connector-curvature="0"
         id="path5754"
         d="M 177.47469,15.6496 C 145.48918,13.709337 87.552197,41.741439 116.67773,43.563383"
         style="fill:none;stroke:#56407a;stroke-width:2;stroke-linecap:round;stroke-linejoin:round;stroke-miterlimit:4;stroke-dasharray:none;stroke-opacity:1" />
      <path
         sodipodi:nodetypes="ccccccc"
         inkscape:connector-curvature="0"
         id="path5756"
         d="M 116.67773,43.563383 C 102.20656,40.255197 96.600134,61.355338 94.720832,63.50521 c -1.990211,2.516751 -4.798741,5.990003 -12.228025,10.361401 0.821804,1.115351 2.341409,1.148013 2.465413,3.346053 -0.108246,2.118278 -0.387707,3.920661 -2.036394,5.2674 v 0 0"
         style="fill:none;stroke:#56407a;stroke-width:2;stroke-linecap:round;stroke-linejoin:round;stroke-miterlimit:4;stroke-dasharray:none;stroke-opacity:1" />
      <path
         sodipodi:nodetypes="cc"
         inkscape:connector-curvature="0"
         id="path5760"
         d="m 82.921826,82.480064 c -3.86527,2.71873 5.790324,9.527056 9.614246,7.406956"
         style="fill:none;stroke:#56407a;stroke-width:2;stroke-linecap:round;stroke-linejoin:round;stroke-miterlimit:4;stroke-dasharray:none;stroke-opacity:1" />
      <path
         sodipodi:nodetypes="cc"
         inkscape:connector-curvature="0"
         id="path5764"
         d="M 92.536072,89.88702 C 100.85092,84.199291 105.99455,77.039511 110.51471,74.389843"
         style="fill:none;stroke:#56407a;stroke-width:2;stroke-linecap:round;stroke-linejoin:round;stroke-miterlimit:4;stroke-dasharray:none;stroke-opacity:1" />
      <path
         sodipodi:nodetypes="cc"
         inkscape:connector-curvature="0"
         id="path6240"
         d="m 151.17853,28.016281 c 0.13827,1.659257 25.04451,-15.499401 50.16938,36.08424"
         style="fill:none;stroke:#56407a;stroke-width:2;stroke-linecap:round;stroke-linejoin:round;stroke-miterlimit:4;stroke-dasharray:none;stroke-opacity:1;paint-order:markers stroke fill" />
      <path
         sodipodi:nodetypes="ccc"
         inkscape:connector-curvature="0"
         id="path6242"
         d="m 201.34791,64.100521 c -14.45059,-1.344793 -21.51655,-6.000264 -28.11197,-5.027083 34.08704,3.141329 9.92701,43.499172 24.70387,77.217392"
         style="fill:none;stroke:#56407a;stroke-width:2;stroke-linecap:round;stroke-linejoin:round;stroke-miterlimit:4;stroke-dasharray:none;stroke-opacity:1" />
      <path
         sodipodi:nodetypes="cc"
         inkscape:connector-curvature="0"
         id="path6248"
         d="m 151.17853,28.016281 c 2.89855,-5.089884 16.40269,-8.482 26.29616,-12.366681"
         style="fill:none;stroke:#56407a;stroke-width:2;stroke-linecap:round;stroke-linejoin:round;stroke-miterlimit:4;stroke-dasharray:none;stroke-opacity:1" />
      <path
         sodipodi:nodetypes="cc"
         inkscape:connector-curvature="0"
         id="path6250"
         d="m 154.64896,75.54375 c -1.08622,17.149426 -7.71482,22.218028 -12.83229,24.341668"
         style="fill:none;stroke:#56407a;stroke-width:2;stroke-linecap:round;stroke-linejoin:round;stroke-miterlimit:4;stroke-dasharray:none;stroke-opacity:1" />
      <path
         sodipodi:nodetypes="cc"
         inkscape:connector-curvature="0"
         id="path6255"
         d="M 197.93981,136.29083 C 175.6545,112.79155 158.15811,104.50415 141.81667,99.885417"
         style="fill:none;stroke:#56407a;stroke-width:2;stroke-linecap:round;stroke-linejoin:round;stroke-miterlimit:4;stroke-dasharray:none;stroke-opacity:1" />
      <path
         sodipodi:nodetypes="ccc"
         inkscape:connector-curvature="0"
         id="path6263"
         d="m 115.91779,71.667586 c 0.73489,4.862337 -3.78067,5.038319 -4.55253,1.930714 0.38463,-7.940506 2.2267,-10.581803 4.55253,-1.930714 z"
         style="fill:#56407a;fill-opacity:1;stroke:#56407a;stroke-width:2;stroke-linecap:round;stroke-linejoin:round;stroke-miterlimit:4;stroke-dasharray:none;stroke-opacity:1" />
      <path
         sodipodi:nodetypes="cc"
         inkscape:connector-curvature="0"
         id="path6265"
         d="m 92.53607,89.887019 c -1.432755,1.967106 -1.621376,5.590443 9.83343,6.120016"
         style="fill:none;stroke:#56407a;stroke-width:2;stroke-linecap:round;stroke-linejoin:round;stroke-miterlimit:4;stroke-dasharray:none;stroke-opacity:1" />
      <path
         sodipodi:nodetypes="cccccc"
         inkscape:connector-curvature="0"
         id="path6267"
         d="m 102.3695,96.007033 c 12.50311,-0.175782 21.76728,-16.123673 28.21839,-18.368498 5.83247,-2.358166 12.82621,-1.356358 17.22156,-6.367662 3.59881,-5.822988 3.0599,-10.703197 0.36477,-16.176522 l -0.008,-0.05581 v 0.09922"
         style="display:inline;fill:none;stroke:#56407a;stroke-width:2;stroke-linecap:round;stroke-linejoin:round;stroke-miterlimit:4;stroke-dasharray:none;stroke-opacity:1" />
      <path
         sodipodi:nodetypes="cc"
         inkscape:connector-curvature="0"
         id="path6269"
         d="m 141.81667,99.885417 c -0.7334,-7.475847 -7.40189,-14.612861 -13.3803,-20.142136"
         style="display:inline;fill:none;stroke:#56407a;stroke-width:2;stroke-linecap:round;stroke-linejoin:round;stroke-miterlimit:4;stroke-dasharray:none;stroke-opacity:1" />
    </g>
  </g>
  <g
     inkscape:groupmode="layer"
     id="layer10"
     inkscape:label="Dragon-eye"
     style="display:inline"
     transform="translate(0,-161.53332)">
    <path
       style="display:inline;fill:#ffffff;fill-opacity:0.94117647;stroke:none;stroke-width:2;stroke-linecap:round;stroke-linejoin:round;stroke-miterlimit:4;stroke-dasharray:none;stroke-opacity:1"
       d="m 58.032585,203.37172 c -1.86281,1.00299 -12.43432,1.84649 -15.10675,3.70566 0.21013,-0.28033 -2.97824,1.96286 -3.7092,7.22364 0.0646,4.49795 2.26199,3.80735 4.05146,2.19111 7.95681,-7.92208 7.03713,-4.9357 14.76449,-13.12041 z"
       id="path6259"
       inkscape:connector-curvature="0"
       sodipodi:nodetypes="ccccc" />
  </g>
  <g
     inkscape:groupmode="layer"
     id="layer12"
     inkscape:label="Dragon-eye1"
     transform="translate(0,-161.53332)">
    <ellipse
       style="opacity:1;vector-effect:none;fill:#000000;fill-opacity:0.94117647;stroke:none;stroke-width:1.94356382;stroke-linecap:round;stroke-linejoin:round;stroke-miterlimit:4;stroke-dasharray:none;stroke-dashoffset:0;stroke-opacity:1;paint-order:markers stroke fill"
       id="path6506"
       cx="-116.39031"
       cy="175.79318"
       rx="5.572114"
       ry="3.837827"
       transform="matrix(0.67660996,-0.73634161,0.69521259,0.71880419,0,0)" />
  </g>
  <g
     inkscape:groupmode="layer"
     id="layer11"
     inkscape:label="Dragon-eye2"
     style="display:inline"
     transform="translate(0,-161.53332)">
    <path
       sodipodi:nodetypes="ccccc"
       inkscape:connector-curvature="0"
       id="path6481"
       d="m 58.032585,203.37172 c -1.86281,1.00299 -12.43432,1.84649 -15.10675,3.70566 0.21013,-0.28033 -2.97824,1.96286 -3.7092,7.22364 0.0646,4.49795 2.26199,3.80735 4.05146,2.19111 7.95681,-7.92208 7.03713,-4.9357 14.76449,-13.12041 z"
       style="display:inline;fill:none;fill-opacity:0.94117647;stroke:#56407a;stroke-width:2;stroke-linecap:round;stroke-linejoin:round;stroke-miterlimit:4;stroke-dasharray:none;stroke-opacity:1" />
  </g>
</svg>
