<?xml version="1.0" encoding="UTF-8" standalone="no"?>
<!-- Generator: Adobe Illustrator 19.0.0, SVG Export Plug-In . SVG Version: 6.00 Build 0)  -->

<svg
   xmlns:dc="http://purl.org/dc/elements/1.1/"
   xmlns:cc="http://creativecommons.org/ns#"
   xmlns:rdf="http://www.w3.org/1999/02/22-rdf-syntax-ns#"
   xmlns:svg="http://www.w3.org/2000/svg"
   xmlns="http://www.w3.org/2000/svg"
   xmlns:sodipodi="http://sodipodi.sourceforge.net/DTD/sodipodi-0.dtd"
   xmlns:inkscape="http://www.inkscape.org/namespaces/inkscape"
   version="1.1"
   id="Layer_1"
   x="0px"
   y="0px"
   viewBox="0 0 400.932 400.932"
   style="enable-background:new 0 0 400.932 400.932;"
   xml:space="preserve"
   sodipodi:docname="skype.svg"
   inkscape:version="0.92.5 (2060ec1f9f, 2020-04-08)"><metadata
   id="metadata39"><rdf:RDF><cc:Work
       rdf:about=""><dc:format>image/svg+xml</dc:format><dc:type
         rdf:resource="http://purl.org/dc/dcmitype/StillImage" /></cc:Work></rdf:RDF></metadata><defs
   id="defs37" /><sodipodi:namedview
   pagecolor="#ffffff"
   bordercolor="#666666"
   borderopacity="1"
   objecttolerance="10"
   gridtolerance="10"
   guidetolerance="10"
   inkscape:pageopacity="0"
   inkscape:pageshadow="2"
   inkscape:window-width="1848"
   inkscape:window-height="1001"
   id="namedview35"
   showgrid="false"
   inkscape:zoom="1.177257"
   inkscape:cx="142.53491"
   inkscape:cy="121.74386"
   inkscape:window-x="72"
   inkscape:window-y="41"
   inkscape:window-maximized="1"
   inkscape:current-layer="layer1" />

<g
   id="g4">
</g>
<g
   id="g6">
</g>
<g
   id="g8">
</g>
<g
   id="g10">
</g>
<g
   id="g12">
</g>
<g
   id="g14">
</g>
<g
   id="g16">
</g>
<g
   id="g18">
</g>
<g
   id="g20">
</g>
<g
   id="g22">
</g>
<g
   id="g24">
</g>
<g
   id="g26">
</g>
<g
   id="g28">
</g>
<g
   id="g30">
</g>
<g
   id="g32">
</g>
<g
   inkscape:groupmode="layer"
   id="layer2"
   inkscape:label="Layer 2"><path
     style="opacity:1;vector-effect:none;fill:#ffffff;fill-opacity:1;fill-rule:evenodd;stroke:none;stroke-width:97.99620056;stroke-linecap:round;stroke-linejoin:round;stroke-miterlimit:4;stroke-dasharray:none;stroke-dashoffset:0;stroke-opacity:1;paint-order:markers stroke fill"
     id="path861"
     sodipodi:type="arc"
     sodipodi:cx="203.51826"
     sodipodi:cy="195.21271"
     sodipodi:rx="131.24449"
     sodipodi:ry="135.83652"
     sodipodi:start="6.1509592"
     sodipodi:end="6.1509417"
     d="M 333.6171,177.30387 A 131.24449,135.83652 0 0 1 220.82226,329.86341 131.24449,135.83652 0 0 1 73.419576,213.12273 131.24449,135.83652 0 0 1 186.21313,60.562162 131.24449,135.83652 0 0 1 333.6168,177.30151 l -130.09854,17.9112 z" /></g><g
   inkscape:groupmode="layer"
   id="layer1"
   inkscape:label="Layer 1"><path
     style="fill:#00aaf2;stroke-width:0.89087456"
     d="m 366.0201,227.47747 c -5.71412,-7.76778 -8.36232,-17.25486 -8.35154,-26.84266 8.9e-4,-0.0557 8.9e-4,-0.11132 8.9e-4,-0.16787 0,-85.38992 -70.38221,-154.612567 -157.2025,-154.612567 -18.99287,0 -37.19163,3.324631 -54.04384,9.400498 -9.1169,3.28664 -19.10425,3.918347 -28.45112,1.328792 -8.25632,-2.287395 -17.07588,-3.252183 -26.212542,-2.633729 -38.380088,2.597506 -69.278193,33.533449 -71.26704,71.320096 -0.949509,18.03588 4.549915,34.76682 14.420493,48.1855 5.714119,7.76778 8.362322,17.25486 8.350644,26.84266 0,0.0557 0,0.11132 0,0.16787 0,85.38992 70.381315,154.61257 157.202505,154.61257 18.99377,0 37.19253,-3.32463 54.04384,-9.4005 9.1169,-3.28664 19.10425,-3.91835 28.45112,-1.32879 8.25632,2.28739 17.07498,3.25218 26.21254,2.63373 38.38009,-2.59751 69.2773,-33.53257 71.26704,-71.31833 0.94951,-18.03588 -4.54991,-34.76771 -14.42049,-48.18727 z M 206.22149,172.74784 c 31.6976,7.4135 79.59703,18.61635 79.59703,70.50904 0,25.56334 -12.79995,45.06408 -36.0436,54.90898 -16.58631,7.02563 -35.35819,7.97363 -51.53397,7.97363 -49.70862,0 -81.10438,-38.01547 -82.4168,-39.63405 -8.14045,-10.04192 -6.46511,-24.67454 3.74593,-32.68087 10.20834,-8.00986 25.08607,-6.3577 33.22831,3.68157 0.0728,0.0857 18.84823,21.29336 45.44256,22.12298 32.02458,0.99924 39.34127,-8.3721 40.28719,-16.37136 1.15612,-9.7698 -7.68051,-16.9421 -43.2498,-25.26119 -30.14892,-7.05214 -75.71545,-17.70898 -75.71545,-65.50044 0,-14.88265 6.15429,-63.441875 85.35067,-63.441875 50.00685,0 79.52426,38.723165 80.75674,40.371785 7.7344,10.3485 5.47606,24.90513 -5.04578,32.51123 -10.47604,7.57341 -25.18309,5.40617 -32.94714,-4.81687 -0.55695,-0.70416 -17.45317,-19.19239 -42.76382,-21.55577 -19.15187,-1.7891 -38.06119,5.00329 -38.06119,15.03726 0,10.63123 5.43025,14.20766 39.36912,22.14595 z"
     id="path2"
     inkscape:connector-curvature="0" /></g></svg>